<?xml version="1.0" encoding="UTF-8" standalone="no"?>
<!-- Created with Inkscape (http://www.inkscape.org/) -->

<svg
   xmlns:dc="http://purl.org/dc/elements/1.1/"
   xmlns:cc="http://creativecommons.org/ns#"
   xmlns:rdf="http://www.w3.org/1999/02/22-rdf-syntax-ns#"
   xmlns:svg="http://www.w3.org/2000/svg"
   xmlns="http://www.w3.org/2000/svg"
   xmlns:sodipodi="http://sodipodi.sourceforge.net/DTD/sodipodi-0.dtd"
   xmlns:inkscape="http://www.inkscape.org/namespaces/inkscape"
   width="86.203468mm"
   height="43.159492mm"
   viewBox="0 0 86.203469 43.159492"
   version="1.1"
   id="svg8"
   inkscape:version="0.92.2 (5c3e80d, 2017-08-06)"
   sodipodi:docname="IoU_Threshold.svg">
  <defs
     id="defs2">
    <clipPath
       id="clipEmfPath1"
       clipPathUnits="userSpaceOnUse">
      <path
         id="path815"
         d="M 73.436186,7.0396344 H 360.30129 V 134.87299 H 73.436186 Z"
         inkscape:connector-curvature="0" />
    </clipPath>
    <pattern
       y="0"
       x="0"
       height="6"
       width="6"
       patternUnits="userSpaceOnUse"
       id="EMFhbasepattern" />
    <clipPath
       id="clipEmfPath1-8"
       clipPathUnits="userSpaceOnUse">
      <path
         id="path1603"
         d="M 73.436186,7.0396344 H 360.30129 V 134.87299 H 73.436186 Z"
         inkscape:connector-curvature="0" />
    </clipPath>
    <pattern
       y="0"
       x="0"
       height="6"
       width="6"
       patternUnits="userSpaceOnUse"
       id="EMFhbasepattern-3" />
  </defs>
  <sodipodi:namedview
     id="base"
     pagecolor="#ffffff"
     bordercolor="#666666"
     borderopacity="1.0"
     inkscape:pageopacity="0.0"
     inkscape:pageshadow="2"
     inkscape:zoom="1.979899"
     inkscape:cx="92.157113"
     inkscape:cy="39.065154"
     inkscape:document-units="mm"
     inkscape:current-layer="layer1"
     showgrid="false"
     inkscape:window-width="1920"
     inkscape:window-height="1001"
     inkscape:window-x="-9"
     inkscape:window-y="-9"
     inkscape:window-maximized="1" />
  <metadata
     id="metadata5">
    <rdf:RDF>
      <cc:Work
         rdf:about="">
        <dc:format>image/svg+xml</dc:format>
        <dc:type
           rdf:resource="http://purl.org/dc/dcmitype/StillImage" />
        <dc:title></dc:title>
      </cc:Work>
    </rdf:RDF>
  </metadata>
  <g
     inkscape:label="Ebene 1"
     inkscape:groupmode="layer"
     id="layer1"
     transform="translate(-95.487744,-154.34519)">
    <path
       id="path1611"
       d="m 105.59118,182.35369 h 75.68807 m -75.68807,-6.73065 h 75.68807 m -75.68807,-6.73065 h 75.68807 m -75.68807,-6.68832 h 75.68807 m -75.68807,-6.73065 h 75.68807"
       style="fill:none;stroke:#d9d9d9;stroke-width:0.25927821px;stroke-linecap:butt;stroke-linejoin:round;stroke-miterlimit:4;stroke-dasharray:none;stroke-opacity:1"
       inkscape:connector-curvature="0" />
    <path
       id="path1613"
       d="m 124.5132,155.47342 v 33.56859 m 18.92202,-33.56859 v 33.56859 m 18.92201,-33.56859 v 33.56859 m 18.92202,-33.56859 v 33.56859"
       style="fill:none;stroke:#d9d9d9;stroke-width:0.25927821px;stroke-linecap:butt;stroke-linejoin:round;stroke-miterlimit:4;stroke-dasharray:none;stroke-opacity:1"
       inkscape:connector-curvature="0" />
    <path
       id="path1615"
       d="M 105.59118,189.04201 V 155.47342"
       style="fill:none;stroke:#bfbfbf;stroke-width:0.25927821px;stroke-linecap:butt;stroke-linejoin:round;stroke-miterlimit:4;stroke-dasharray:none;stroke-opacity:1"
       inkscape:connector-curvature="0" />
    <path
       id="path1617"
       d="m 105.59118,189.04201 h 75.68807"
       style="fill:none;stroke:#bfbfbf;stroke-width:0.25927821px;stroke-linecap:butt;stroke-linejoin:round;stroke-miterlimit:4;stroke-dasharray:none;stroke-opacity:1"
       inkscape:connector-curvature="0" />
    <path
       id="path1619"
       d="m 1.9199003,20.638928 c 2.3998753,0.139993 4.7797517,0.359981 7.1596281,0.419978 2.3798766,0.08 4.7597526,0 7.1396296,0 2.379876,0 4.779751,-0.139993 7.159628,0 2.379876,0.139993 4.759752,0.619968 7.139629,0.819958 2.379876,0.219988 4.779752,0.339982 7.159628,0.419978 2.379876,0.06 4.759753,0 7.139629,0 2.379877,0 4.759753,0 7.159628,0 2.379877,0 4.759753,0 7.139629,0 2.379877,0 4.759753,0 7.13963,0 2.399875,0 4.779751,-0.139993 7.159628,0 2.379876,0.139993 4.759753,0.539972 7.139629,0.819957 2.379876,0.279986 4.779752,0.619968 7.159628,0.819958 2.379876,0.219988 4.759753,0.279985 7.139629,0.419978 2.379877,0.139993 4.759753,0.339982 7.159627,0.419978 2.37988,0.06 4.75975,-0.08 7.13963,0 2.37988,0.06 4.75975,0.19999 7.15963,0.399979 2.37988,0.19999 4.75975,0.619968 7.13963,0.819958 2.37987,0.219988 4.75975,0.279985 7.13963,0.419978 2.39987,0.139993 4.77975,0.339982 7.15963,0.419978 2.37987,0.06 4.75975,-0.08 7.13962,0 2.37988,0.06 4.77976,0.259987 7.15963,0.399979 2.37988,0.139993 4.75976,0.339983 7.13963,0.419978 2.37988,0.06 4.75975,0 7.15963,0 2.37988,0 4.75975,-0.139992 7.13963,0 2.37988,0.139993 4.75975,0.539972 7.13963,0.819958 2.39987,0.279985 4.77975,0.539972 7.15963,0.819957 2.37987,0.279986 4.75975,0.619968 7.13963,0.819958 2.37987,0.219988 4.77975,0.359981 7.15962,0.419978 2.37988,0.06 4.75976,-0.19999 7.13963,0 2.37988,0.199989 4.77975,0.899953 7.15963,1.239935 2.37988,0.339983 4.75975,0.679965 7.13963,0.819958 2.37988,0.139993 4.75975,-0.139993 7.15963,0 2.37987,0.139993 4.75975,0.419978 7.13963,0.819957 2.37987,0.419978 4.75975,0.899954 7.13963,1.659914 2.39987,0.739962 4.77975,1.579918 7.15962,2.87985 2.37988,1.299933 4.75976,2.599865 7.13963,4.939744 2.37988,2.339878 4.77976,5.699704 7.15963,9.059529 2.37988,3.379825 4.75975,6.599658 7.13963,11.139422 2.37988,4.519765 4.75975,9.259519 7.15963,16.059166 2.37988,6.799647 4.75975,17.659082 7.13963,24.738711 2.37987,7.05964 4.75975,13.37931 7.15963,17.71908 2.37987,4.31978 4.75975,6.23968 7.13963,8.23958 2.37987,1.97989 4.75975,3.01984 7.13962,3.6998 2.39988,0.67997 4.77976,0.33999 7.15963,0.41998 2.37988,0.06 4.75976,0 7.13963,0 2.37988,0 4.77975,0 7.15963,0 2.37988,0 4.75975,0 7.13963,0 2.37988,0 4.75975,0 7.15963,0 2.37987,0 4.75975,0 7.13963,0 2.37987,0 4.75975,0 7.13963,0"
       clip-path="url(#clipEmfPath1-8)"
       style="fill:none;stroke:#ed7d31;stroke-width:1.99989617px;stroke-linecap:round;stroke-linejoin:round;stroke-miterlimit:4;stroke-dasharray:none;stroke-opacity:1"
       inkscape:connector-curvature="0"
       transform="matrix(0.26458333,0,0,0.26458333,86.182353,153.63202)" />
    <path
       id="path1621"
       d="m 1.9199003,121.91367 c 2.3998753,-0.12 4.7797517,-0.33998 7.1596281,-0.39998 2.3798766,-0.08 4.7597526,0 7.1396296,0 2.379876,0 4.779751,0.13999 7.159628,0 2.379876,-0.13999 4.759752,-0.61997 7.139629,-0.81996 2.379876,-0.21999 4.779752,-0.35998 7.159628,-0.41998 2.379876,-0.06 4.759753,0 7.139629,0 2.379877,0 4.759753,0 7.159628,0 2.379877,0 4.759753,0 7.139629,0 2.379877,0 4.759753,0 7.13963,0 2.399875,0 4.779751,0.14 7.159628,0 2.379876,-0.13999 4.759753,-0.53997 7.139629,-0.81995 2.379876,-0.27999 4.779752,-0.61997 7.159628,-0.81996 2.379876,-0.21999 4.759753,-0.27999 7.139629,-0.41998 2.379877,-0.13999 4.759753,-0.33998 7.159627,-0.41998 2.37988,-0.06 4.75975,0.08 7.13963,0 2.37988,-0.06 4.75975,-0.19999 7.15963,-0.39998 2.37988,-0.19999 4.75975,-0.61997 7.13963,-0.81995 2.37987,-0.21999 4.75975,-0.27999 7.13963,-0.41998 2.39987,-0.14 4.77975,-0.33999 7.15963,-0.41998 2.37987,-0.06 4.75975,0.08 7.13962,0 2.37988,-0.06 4.77976,-0.25999 7.15963,-0.39998 2.37988,-0.13999 4.75976,-0.33998 7.13963,-0.41998 2.37988,-0.06 4.75975,0 7.15963,0 2.37988,0 4.75975,0.13999 7.13963,0 2.37988,-0.13999 4.75975,-0.53997 7.13963,-0.81996 2.39987,-0.27998 4.77975,-0.53997 7.15963,-0.81995 2.37987,-0.27999 4.75975,-0.61997 7.13963,-0.81996 2.37987,-0.21999 4.77975,-0.35998 7.15962,-0.41998 2.37988,-0.06 4.75976,0.19999 7.13963,0 2.37988,-0.19999 4.77975,-0.89995 7.15963,-1.23993 2.37988,-0.33999 4.75975,-0.67997 7.13963,-0.81996 2.37988,-0.13999 4.75975,0.13999 7.15963,0 2.37987,-0.13999 4.75975,-0.41998 7.13963,-0.81996 2.37987,-0.41998 4.75975,-0.89995 7.13963,-1.65991 2.39987,-0.73996 4.77975,-1.57992 7.15962,-2.87985 2.37988,-1.29994 4.75976,-2.59987 7.13963,-4.939747 2.37988,-2.339879 4.77976,-5.699704 7.15963,-9.05953 2.37988,-3.379824 4.75975,-6.599657 7.13963,-11.139421 2.37988,-4.519765 4.75975,-9.259519 7.15963,-16.059166 2.37988,-6.799647 4.75975,-17.659083 7.13963,-24.738715 2.37987,-7.059633 4.75975,-13.379305 7.15963,-17.71908 2.37987,-4.319775 4.75975,-6.239676 7.13963,-8.239572 2.37987,-1.979897 4.75975,-3.0198428 7.13962,-3.6998075 2.39988,-0.6999636 4.77976,-0.3399823 7.15963,-0.4199782 2.37988,-0.059997 4.75976,0 7.13963,0 2.37988,0 4.77975,0 7.15963,0 2.37988,0 4.75975,0 7.13963,0 2.37988,0 4.75975,0 7.15963,0 2.37987,0 4.75975,0 7.13963,0 2.37987,0 4.75975,0 7.13963,0"
       clip-path="url(#clipEmfPath1-8)"
       style="fill:none;stroke:#c55a11;stroke-width:1.99989617px;stroke-linecap:round;stroke-linejoin:round;stroke-miterlimit:4;stroke-dasharray:none;stroke-opacity:1"
       inkscape:connector-curvature="0"
       transform="matrix(0.26458333,0,0,0.26458333,86.182353,153.63202)" />
    <path
       id="path1623"
       d="m 1.9199003,22.158849 c 2.3998753,0 4.7797517,0 7.1596281,0 2.3798766,0 4.7597526,0 7.1396296,0 2.379876,0 4.779751,0 7.159628,0 2.379876,0 4.759752,0 7.139629,0 2.379876,0 4.779752,-0.08 7.159628,0 2.379876,0.06 4.759753,0.339982 7.139629,0.419978 2.379877,0.06 4.759753,0 7.159628,0 2.379877,0 4.759753,0 7.139629,0 2.379877,0 4.759753,0 7.13963,0 2.399875,0 4.779751,0 7.159628,0 2.379876,0 4.759753,0 7.139629,0 2.379876,0 4.779752,0 7.159628,0 2.379876,0 4.759753,-0.139992 7.139629,0 2.379877,0.119994 4.759753,0.679965 7.159627,0.819958 2.37988,0.139992 4.75975,-0.139993 7.13963,0 2.37988,0.139992 4.75975,0.539972 7.15963,0.819957 2.37988,0.279986 4.75975,0.619968 7.13963,0.819958 2.37987,0.199989 4.75975,0.339982 7.13963,0.419978 2.39987,0.06 4.77975,0 7.15963,0 2.37987,0 4.75975,-0.08 7.13962,0 2.37988,0.06 4.77976,0.339982 7.15963,0.399979 2.37988,0.08 4.75976,-0.06 7.13963,0 2.37988,0.08 4.75975,0.279985 7.15963,0.419978 2.37988,0.139993 4.75975,0.19999 7.13963,0.419978 2.37988,0.19999 4.75975,0.539972 7.13963,0.819958 2.39987,0.279985 4.77975,0.539972 7.15963,0.819957 2.37987,0.279986 4.75975,0.559971 7.13963,0.819958 2.37987,0.279985 4.77975,0.619967 7.15962,0.819957 2.37988,0.219989 4.75976,0.139993 7.13963,0.419978 2.37988,0.279986 4.77975,0.819958 7.15963,1.239936 2.37988,0.419978 4.75975,0.819957 7.13963,1.239935 2.37988,0.39998 4.75975,0.619968 7.15963,1.239936 2.37987,0.599969 4.75975,1.779907 7.13963,2.459872 2.37987,0.699964 4.75975,0.619968 7.13963,1.659914 2.39987,1.019947 4.77975,2.799855 7.15962,4.519765 2.37988,1.719911 4.75976,3.579814 7.13963,5.7797 2.37988,2.199886 4.77976,3.979793 7.15963,7.419615 2.37988,3.439821 4.75975,8.439561 7.13963,13.179315 2.37988,4.739754 4.75975,8.939536 7.15963,15.259208 2.37988,6.319671 4.75975,16.079163 7.13963,22.658823 2.37987,6.59966 4.75975,12.85933 7.15963,16.89912 2.37987,4.05979 4.75975,5.8397 7.13963,7.41962 2.37987,1.57991 4.75975,1.65991 7.13962,2.05989 2.39988,0.41998 4.77976,0.35998 7.15963,0.41998 2.37988,0.06 4.75976,0 7.13963,0 2.37988,0 4.77975,0 7.15963,0 2.37988,0 4.75975,0 7.13963,0 2.37988,0 4.75975,0 7.15963,0 2.37987,0 4.75975,0 7.13963,0 2.37987,0 4.75975,0 7.13963,0"
       clip-path="url(#clipEmfPath1-8)"
       style="fill:none;stroke:#70ad47;stroke-width:1.99989617px;stroke-linecap:round;stroke-linejoin:round;stroke-miterlimit:4;stroke-dasharray:none;stroke-opacity:1"
       inkscape:connector-curvature="0"
       transform="matrix(0.26458333,0,0,0.26458333,86.182353,153.63202)" />
    <path
       id="path1625"
       d="m 1.9199003,128.57332 c 2.3998753,0 4.7797517,0 7.1596281,0 2.3798766,0 4.7597526,0 7.1396296,0 2.379876,0 4.779751,0 7.159628,0 2.379876,0 4.759752,0 7.139629,0 2.379876,0 4.779752,0.06 7.159628,0 2.379876,-0.06 4.759753,-0.33998 7.139629,-0.41998 2.379877,-0.06 4.759753,0 7.159628,0 2.379877,0 4.759753,0 7.139629,0 2.379877,0 4.759753,0 7.13963,0 2.399875,0 4.779751,0 7.159628,0 2.379876,0 4.759753,0 7.139629,0 2.379876,0 4.779752,0 7.159628,0 2.379876,0 4.759753,0.14 7.139629,0 2.379877,-0.11999 4.759753,-0.67996 7.159627,-0.81995 2.37988,-0.14 4.75975,0.13999 7.13963,0 2.37988,-0.14 4.75975,-0.53998 7.15963,-0.81996 2.37988,-0.27999 4.75975,-0.61997 7.13963,-0.81996 2.37987,-0.21999 4.75975,-0.33998 7.13963,-0.41998 2.39987,-0.06 4.77975,0 7.15963,0 2.37987,0 4.75975,0.08 7.13962,0 2.37988,-0.06 4.77976,-0.33998 7.15963,-0.39998 2.37988,-0.08 4.75976,0.06 7.13963,0 2.37988,-0.08 4.75975,-0.27998 7.15963,-0.41997 2.37988,-0.14 4.75975,-0.19999 7.13963,-0.41998 2.37988,-0.19999 4.75975,-0.53997 7.13963,-0.81996 2.39987,-0.27999 4.77975,-0.53997 7.15963,-0.81996 2.37987,-0.27998 4.75975,-0.55997 7.13963,-0.81995 2.37987,-0.27999 4.77975,-0.61997 7.15962,-0.83996 2.37988,-0.19999 4.75976,-0.11999 7.13963,-0.39998 2.37988,-0.27999 4.77975,-0.81996 7.15963,-1.23994 2.37988,-0.41997 4.75975,-0.81995 7.13963,-1.23993 2.37988,-0.39998 4.75975,-0.61997 7.15963,-1.23994 2.37987,-0.61996 4.75975,-1.7799 7.13963,-2.45987 2.37987,-0.69996 4.75975,-0.61997 7.13963,-1.65991 2.39987,-1.01995 4.77975,-2.81986 7.15962,-4.51977 2.37988,-1.71991 4.75976,-3.57981 7.13963,-5.7797 2.37988,-2.199884 4.77976,-3.979791 7.15963,-7.419613 2.37988,-3.439821 4.75975,-8.439561 7.13963,-13.179315 2.37988,-4.739754 4.75975,-8.939536 7.15963,-15.259207 2.37988,-6.319672 4.75975,-16.079165 7.13963,-22.658824 2.37987,-6.599657 4.75975,-12.859332 7.15963,-16.899122 2.37987,-4.059789 4.75975,-5.839697 7.13963,-7.419614 2.37987,-1.579918 4.75975,-1.659914 7.13962,-2.059894 2.39988,-0.419978 4.77976,-0.359981 7.15963,-0.419978 2.37988,-0.08 4.75976,0 7.13963,0 2.37988,0 4.77975,0 7.15963,0 2.37988,0 4.75975,0 7.13963,0 2.37988,0 4.75975,0 7.15963,0 2.37987,0 4.75975,0 7.13963,0 2.37987,0 4.75975,0 7.13963,0"
       clip-path="url(#clipEmfPath1-8)"
       style="fill:none;stroke:#548235;stroke-width:1.99989617px;stroke-linecap:round;stroke-linejoin:round;stroke-miterlimit:4;stroke-dasharray:none;stroke-opacity:1"
       inkscape:connector-curvature="0"
       transform="matrix(0.26458333,0,0,0.26458333,86.182353,153.63202)" />
    <path
       id="path1627"
       d="m 1.9199003,28.458522 c 2.3998753,0 4.7797517,0 7.1596281,0 2.3798766,0 4.7597526,0 7.1396296,0 2.379876,0 4.779751,0 7.159628,0 2.379876,0 4.759752,0 7.139629,0 2.379876,0 4.779752,0 7.159628,0 2.379876,0 4.759753,0 7.139629,0 2.379877,0 4.759753,0 7.159628,0 2.379877,0 4.759753,0 7.139629,0 2.379877,0 4.759753,0 7.13963,0 2.399875,0 4.779751,0 7.159628,0 2.379876,0 4.759753,0 7.139629,0 2.379876,0 4.779752,0 7.159628,0 2.379876,0 4.759753,-0.139993 7.139629,0 2.379877,0.139993 4.759753,0.699964 7.159627,0.839956 2.37988,0.119994 4.75975,-0.139992 7.13963,0 2.37988,0.119994 4.75975,0.539972 7.15963,0.819958 2.37988,0.259986 4.75975,0.619967 7.13963,0.819957 2.37987,0.19999 4.75975,0.339982 7.13963,0.399979 2.39987,0.08 4.77975,0 7.15963,0 2.37987,0 4.75975,-0.06 7.13962,0 2.37988,0.08 4.77976,0.219989 7.15963,0.419978 2.37988,0.19999 4.75976,0.619968 7.13963,0.819958 2.37988,0.19999 4.75975,0.139993 7.15963,0.419978 2.37988,0.259987 4.75975,1.019947 7.13963,1.239936 2.37988,0.199989 4.75975,-0.139993 7.13963,0 2.39987,0.119993 4.77975,0.679964 7.15963,0.819957 2.37987,0.139993 4.75975,-0.08 7.13963,0 2.37987,0.06 4.77975,0.339982 7.15962,0.399979 2.37988,0.08 4.75976,-0.339982 7.13963,0 2.37988,0.339983 4.77975,1.439926 7.15963,2.059893 2.37988,0.619968 4.75975,0.819958 7.13963,1.659914 2.37988,0.819958 4.75975,2.31988 7.15963,3.27983 2.37987,0.95995 4.75975,1.179938 7.13963,2.479871 2.37987,1.299932 4.75975,3.699808 7.13963,5.339723 2.39987,1.659913 4.77975,2.619864 7.15962,4.539764 2.37988,1.9199 4.75976,4.719755 7.13963,6.999636 2.37988,2.259883 4.77976,3.159836 7.15963,6.579659 2.37988,3.439821 4.75975,9.479507 7.13963,13.999272 2.37988,4.519766 4.75975,7.879591 7.15963,13.179316 2.37988,5.279724 4.75975,13.159314 7.13963,18.519034 2.37987,5.35973 4.75975,10.63945 7.15963,13.5793 2.37987,2.95984 4.75975,3.15983 7.13963,4.11978 2.37987,0.95995 4.75975,1.29994 7.13962,1.63992 2.39988,0.35998 4.77976,0.35998 7.15963,0.41998 2.37988,0.06 4.75976,0 7.13963,0 2.37988,0 4.77975,0 7.15963,0 2.37988,0 4.75975,0 7.13963,0 2.37988,0 4.75975,0 7.15963,0 2.37987,0 4.75975,0 7.13963,0 2.37987,0 4.75975,0 7.13963,0"
       clip-path="url(#clipEmfPath1-8)"
       style="fill:none;stroke:#5b9bd5;stroke-width:1.99989617px;stroke-linecap:round;stroke-linejoin:round;stroke-miterlimit:4;stroke-dasharray:none;stroke-opacity:1"
       inkscape:connector-curvature="0"
       transform="matrix(0.26458333,0,0,0.26458333,86.182353,153.63202)" />
    <path
       id="path1629"
       d="m 1.9199003,116.19396 c 2.3998753,0 4.7797517,0 7.1596281,0 2.3798766,0 4.7597526,0 7.1396296,0 2.379876,0 4.779751,0 7.159628,0 2.379876,0 4.759752,0 7.139629,0 2.379876,0 4.779752,0 7.159628,0 2.379876,0 4.759753,0 7.139629,0 2.379877,0 4.759753,0 7.159628,0 2.379877,0 4.759753,0 7.139629,0 2.379877,0 4.759753,0 7.13963,0 2.399875,0 4.779751,0 7.159628,0 2.379876,0 4.759753,0 7.139629,0 2.379876,0 4.779752,0 7.159628,0 2.379876,0 4.759753,0.12 7.139629,0 2.379877,-0.13999 4.759753,-0.69996 7.159627,-0.83995 2.37988,-0.13999 4.75975,0.13999 7.13963,0 2.37988,-0.13999 4.75975,-0.53997 7.15963,-0.81996 2.37988,-0.27998 4.75975,-0.61997 7.13963,-0.81996 2.37987,-0.19999 4.75975,-0.33998 7.13963,-0.41997 2.39987,-0.06 4.77975,0 7.15963,0 2.37987,0 4.75975,0.08 7.13962,0 2.37988,-0.06 4.77976,-0.19999 7.15963,-0.39998 2.37988,-0.21999 4.75976,-0.61997 7.13963,-0.83996 2.37988,-0.19999 4.75975,-0.11999 7.15963,-0.39998 2.37988,-0.27998 4.75975,-1.03995 7.13963,-1.23993 2.37988,-0.19999 4.75975,0.13999 7.13963,0 2.39987,-0.14 4.77975,-0.67997 7.15963,-0.81996 2.37987,-0.14 4.75975,0.06 7.13963,0 2.37987,-0.08 4.77975,-0.33998 7.15962,-0.41998 2.37988,-0.06 4.75976,0.33998 7.13963,0 2.37988,-0.33998 4.77975,-1.43993 7.15963,-2.05989 2.37988,-0.61997 4.75975,-0.81996 7.13963,-1.63992 2.37988,-0.83995 4.75975,-2.33988 7.15963,-3.29983 2.37987,-0.95995 4.75975,-1.17994 7.13963,-2.479868 2.37987,-1.299933 4.75975,-3.719807 7.13963,-5.359722 2.39987,-1.659914 4.77975,-2.619864 7.15962,-4.539764 2.37988,-1.9199 4.75976,-4.739754 7.13963,-6.999636 2.37988,-2.279882 4.77976,-3.159836 7.15963,-6.599658 2.37988,-3.439821 4.75975,-9.479507 7.13963,-14.019271 2.37988,-4.539765 4.75975,-7.89959 7.15963,-13.199315 2.37988,-5.279726 4.75975,-13.199314 7.13963,-18.559036 2.37987,-5.359722 4.75975,-10.639447 7.15963,-13.599294 2.37987,-2.959846 4.75975,-3.159835 7.13963,-4.119786 2.37987,-0.95995 4.75975,-1.299932 7.13962,-1.639914 2.39988,-0.359982 4.77976,-0.359982 7.15963,-0.419979 2.37988,-0.08 4.75976,0 7.13963,0 2.37988,0 4.77975,0 7.15963,0 2.37988,0 4.75975,0 7.13963,0 2.37988,0 4.75975,0 7.15963,0 2.37987,0 4.75975,0 7.13963,0 2.37987,0 4.75975,0 7.13963,0"
       clip-path="url(#clipEmfPath1-8)"
       style="fill:none;stroke:#4472c4;stroke-width:1.99989617px;stroke-linecap:round;stroke-linejoin:round;stroke-miterlimit:4;stroke-dasharray:none;stroke-opacity:1"
       inkscape:connector-curvature="0"
       transform="matrix(0.26458333,0,0,0.26458333,86.182353,153.63202)" />
    <text
       id="text1635"
       y="190.07169"
       x="101.33393"
       style="font-style:normal;font-variant:normal;font-weight:normal;font-stretch:normal;font-size:3.17499995px;line-height:125%;font-family:'Times New Roman';-inkscape-font-specification:'Times New Roman, ';text-align:start;letter-spacing:0px;word-spacing:0px;text-anchor:start;fill:#000000;fill-opacity:1;stroke:none;stroke-width:0.26458332"
       xml:space="preserve"><tspan
         id="tspan1633"
         y="190.07169"
         x="101.33393"
         sodipodi:role="line"
         style="font-style:normal;font-variant:normal;font-weight:normal;font-stretch:normal;font-family:'Times New Roman';-inkscape-font-specification:'Times New Roman, ';stroke-width:0.26458332"><tspan
           id="tspan1631"
           style="font-style:normal;font-variant:normal;font-weight:normal;font-stretch:normal;font-size:3.17499995px;font-family:'Times New Roman';-inkscape-font-specification:'Times New Roman, ';fill:#000000;stroke-width:0.26458332"
           dy="0"
           dx="0">0</tspan></tspan></text>
    <text
       id="text1641"
       y="183.35551"
       x="98.952805"
       style="font-style:normal;font-variant:normal;font-weight:normal;font-stretch:normal;font-size:3.17499995px;line-height:125%;font-family:'Times New Roman';-inkscape-font-specification:'Times New Roman, ';text-align:start;letter-spacing:0px;word-spacing:0px;text-anchor:start;fill:#000000;fill-opacity:1;stroke:none;stroke-width:0.26458332"
       xml:space="preserve"><tspan
         id="tspan1639"
         y="183.35551"
         x="98.952805"
         sodipodi:role="line"
         style="font-style:normal;font-variant:normal;font-weight:normal;font-stretch:normal;font-family:'Times New Roman';-inkscape-font-specification:'Times New Roman, ';stroke-width:0.26458332"><tspan
           id="tspan1637"
           style="font-style:normal;font-variant:normal;font-weight:normal;font-stretch:normal;font-size:3.17499995px;font-family:'Times New Roman';-inkscape-font-specification:'Times New Roman, ';fill:#000000;stroke-width:0.26458332"
           dy="0"
           dx="0">0.2</tspan></tspan></text>
    <text
       id="text1647"
       y="176.63933"
       x="98.952805"
       style="font-style:normal;font-variant:normal;font-weight:normal;font-stretch:normal;font-size:3.17499995px;line-height:125%;font-family:'Times New Roman';-inkscape-font-specification:'Times New Roman, ';text-align:start;letter-spacing:0px;word-spacing:0px;text-anchor:start;fill:#000000;fill-opacity:1;stroke:none;stroke-width:0.26458332"
       xml:space="preserve"><tspan
         id="tspan1645"
         y="176.63933"
         x="98.952805"
         sodipodi:role="line"
         style="font-style:normal;font-variant:normal;font-weight:normal;font-stretch:normal;font-family:'Times New Roman';-inkscape-font-specification:'Times New Roman, ';stroke-width:0.26458332"><tspan
           id="tspan1643"
           style="font-style:normal;font-variant:normal;font-weight:normal;font-stretch:normal;font-size:3.17499995px;font-family:'Times New Roman';-inkscape-font-specification:'Times New Roman, ';fill:#000000;stroke-width:0.26458332"
           dy="0"
           dx="0">0.4</tspan></tspan></text>
    <text
       id="text1653"
       y="169.92316"
       x="98.952805"
       style="font-style:normal;font-variant:normal;font-weight:normal;font-stretch:normal;font-size:3.17499995px;line-height:125%;font-family:'Times New Roman';-inkscape-font-specification:'Times New Roman, ';text-align:start;letter-spacing:0px;word-spacing:0px;text-anchor:start;fill:#000000;fill-opacity:1;stroke:none;stroke-width:0.26458332"
       xml:space="preserve"><tspan
         id="tspan1651"
         y="169.92316"
         x="98.952805"
         sodipodi:role="line"
         style="font-style:normal;font-variant:normal;font-weight:normal;font-stretch:normal;font-family:'Times New Roman';-inkscape-font-specification:'Times New Roman, ';stroke-width:0.26458332"><tspan
           id="tspan1649"
           style="font-style:normal;font-variant:normal;font-weight:normal;font-stretch:normal;font-size:3.17499995px;font-family:'Times New Roman';-inkscape-font-specification:'Times New Roman, ';fill:#000000;stroke-width:0.26458332"
           dy="0"
           dx="0">0.6</tspan></tspan></text>
    <text
       id="text1659"
       y="163.20697"
       x="98.952805"
       style="font-style:normal;font-variant:normal;font-weight:normal;font-stretch:normal;font-size:3.17499995px;line-height:125%;font-family:'Times New Roman';-inkscape-font-specification:'Times New Roman, ';text-align:start;letter-spacing:0px;word-spacing:0px;text-anchor:start;fill:#000000;fill-opacity:1;stroke:none;stroke-width:0.26458332"
       xml:space="preserve"><tspan
         id="tspan1657"
         y="163.20697"
         x="98.952805"
         sodipodi:role="line"
         style="font-style:normal;font-variant:normal;font-weight:normal;font-stretch:normal;font-family:'Times New Roman';-inkscape-font-specification:'Times New Roman, ';stroke-width:0.26458332"><tspan
           id="tspan1655"
           style="font-style:normal;font-variant:normal;font-weight:normal;font-stretch:normal;font-size:3.17499995px;font-family:'Times New Roman';-inkscape-font-specification:'Times New Roman, ';fill:#000000;stroke-width:0.26458332"
           dy="0"
           dx="0">0.8</tspan></tspan></text>
    <text
       id="text1665"
       y="156.4908"
       x="101.33393"
       style="font-style:normal;font-variant:normal;font-weight:normal;font-stretch:normal;font-size:3.17499995px;line-height:125%;font-family:'Times New Roman';-inkscape-font-specification:'Times New Roman, ';text-align:start;letter-spacing:0px;word-spacing:0px;text-anchor:start;fill:#000000;fill-opacity:1;stroke:none;stroke-width:0.26458332"
       xml:space="preserve"><tspan
         id="tspan1663"
         y="156.4908"
         x="101.33393"
         sodipodi:role="line"
         style="font-style:normal;font-variant:normal;font-weight:normal;font-stretch:normal;font-family:'Times New Roman';-inkscape-font-specification:'Times New Roman, ';stroke-width:0.26458332"><tspan
           id="tspan1661"
           style="font-style:normal;font-variant:normal;font-weight:normal;font-stretch:normal;font-size:3.17499995px;font-family:'Times New Roman';-inkscape-font-specification:'Times New Roman, ';fill:#000000;stroke-width:0.26458332"
           dy="0"
           dx="0">1</tspan></tspan></text>
    <text
       id="text1671"
       y="193.80049"
       x="103.63776"
       style="font-style:normal;font-variant:normal;font-weight:normal;font-stretch:normal;font-size:3.17499995px;line-height:125%;font-family:'Times New Roman';-inkscape-font-specification:'Times New Roman, ';text-align:start;letter-spacing:0px;word-spacing:0px;text-anchor:start;fill:#000000;fill-opacity:1;stroke:none;stroke-width:0.26458332"
       xml:space="preserve"><tspan
         id="tspan1669"
         y="193.80049"
         x="103.63776"
         sodipodi:role="line"
         style="font-style:normal;font-variant:normal;font-weight:normal;font-stretch:normal;font-family:'Times New Roman';-inkscape-font-specification:'Times New Roman, ';stroke-width:0.26458332"><tspan
           id="tspan1667"
           style="font-style:normal;font-variant:normal;font-weight:normal;font-stretch:normal;font-size:3.17499995px;font-family:'Times New Roman';-inkscape-font-specification:'Times New Roman, ';fill:#000000;stroke-width:0.26458332"
           dy="0"
           dx="0">0.6</tspan></tspan></text>
    <text
       id="text1677"
       y="193.80049"
       x="122.55349"
       style="font-style:normal;font-variant:normal;font-weight:normal;font-stretch:normal;font-size:3.17499995px;line-height:125%;font-family:'Times New Roman';-inkscape-font-specification:'Times New Roman, ';text-align:start;letter-spacing:0px;word-spacing:0px;text-anchor:start;fill:#000000;fill-opacity:1;stroke:none;stroke-width:0.26458332"
       xml:space="preserve"><tspan
         id="tspan1675"
         y="193.80049"
         x="122.55349"
         sodipodi:role="line"
         style="font-style:normal;font-variant:normal;font-weight:normal;font-stretch:normal;font-family:'Times New Roman';-inkscape-font-specification:'Times New Roman, ';stroke-width:0.26458332"><tspan
           id="tspan1673"
           style="font-style:normal;font-variant:normal;font-weight:normal;font-stretch:normal;font-size:3.17499995px;font-family:'Times New Roman';-inkscape-font-specification:'Times New Roman, ';fill:#000000;stroke-width:0.26458332"
           dy="0"
           dx="0">0.7</tspan></tspan></text>
    <text
       id="text1683"
       y="193.80049"
       x="141.46925"
       style="font-style:normal;font-variant:normal;font-weight:normal;font-stretch:normal;font-size:3.17499995px;line-height:125%;font-family:'Times New Roman';-inkscape-font-specification:'Times New Roman, ';text-align:start;letter-spacing:0px;word-spacing:0px;text-anchor:start;fill:#000000;fill-opacity:1;stroke:none;stroke-width:0.26458332"
       xml:space="preserve"><tspan
         id="tspan1681"
         y="193.80049"
         x="141.46925"
         sodipodi:role="line"
         style="font-style:normal;font-variant:normal;font-weight:normal;font-stretch:normal;font-family:'Times New Roman';-inkscape-font-specification:'Times New Roman, ';stroke-width:0.26458332"><tspan
           id="tspan1679"
           style="font-style:normal;font-variant:normal;font-weight:normal;font-stretch:normal;font-size:3.17499995px;font-family:'Times New Roman';-inkscape-font-specification:'Times New Roman, ';fill:#000000;stroke-width:0.26458332"
           dy="0"
           dx="0">0.8</tspan></tspan></text>
    <text
       id="text1689"
       y="193.80049"
       x="160.38499"
       style="font-style:normal;font-variant:normal;font-weight:normal;font-stretch:normal;font-size:3.17499995px;line-height:125%;font-family:'Times New Roman';-inkscape-font-specification:'Times New Roman, ';text-align:start;letter-spacing:0px;word-spacing:0px;text-anchor:start;fill:#000000;fill-opacity:1;stroke:none;stroke-width:0.26458332"
       xml:space="preserve"><tspan
         id="tspan1687"
         y="193.80049"
         x="160.38499"
         sodipodi:role="line"
         style="font-style:normal;font-variant:normal;font-weight:normal;font-stretch:normal;font-family:'Times New Roman';-inkscape-font-specification:'Times New Roman, ';stroke-width:0.26458332"><tspan
           id="tspan1685"
           style="font-style:normal;font-variant:normal;font-weight:normal;font-stretch:normal;font-size:3.17499995px;font-family:'Times New Roman';-inkscape-font-specification:'Times New Roman, ';fill:#000000;stroke-width:0.26458332"
           dy="0"
           dx="0">0.9</tspan></tspan></text>
    <text
       id="text1695"
       y="193.80049"
       x="180.49129"
       style="font-style:normal;font-variant:normal;font-weight:normal;font-stretch:normal;font-size:3.17499995px;line-height:125%;font-family:'Times New Roman';-inkscape-font-specification:'Times New Roman, ';text-align:start;letter-spacing:0px;word-spacing:0px;text-anchor:start;fill:#000000;fill-opacity:1;stroke:none;stroke-width:0.26458332"
       xml:space="preserve"><tspan
         id="tspan1693"
         y="193.80049"
         x="180.49129"
         sodipodi:role="line"
         style="font-style:normal;font-variant:normal;font-weight:normal;font-stretch:normal;font-family:'Times New Roman';-inkscape-font-specification:'Times New Roman, ';stroke-width:0.26458332"><tspan
           id="tspan1691"
           style="font-style:normal;font-variant:normal;font-weight:normal;font-stretch:normal;font-size:3.17499995px;font-family:'Times New Roman';-inkscape-font-specification:'Times New Roman, ';fill:#000000;stroke-width:0.26458332"
           dy="0"
           dx="0">1</tspan></tspan></text>
    <text
       id="text1701"
       y="97.692261"
       x="-179.32269"
       transform="rotate(-90)"
       style="font-style:normal;font-variant:normal;font-weight:normal;font-stretch:normal;font-size:3.17499995px;line-height:125%;font-family:'Times New Roman';-inkscape-font-specification:'Times New Roman, ';text-align:start;letter-spacing:0px;word-spacing:0px;text-anchor:start;fill:#000000;fill-opacity:1;stroke:none;stroke-width:0.26458332"
       xml:space="preserve"><tspan
         id="tspan1699"
         y="97.692261"
         x="-179.32269"
         sodipodi:role="line"
         style="font-style:normal;font-variant:normal;font-weight:normal;font-stretch:normal;font-family:'Times New Roman';-inkscape-font-specification:'Times New Roman, ';stroke-width:0.26458332"><tspan
           id="tspan1697"
           style="font-style:normal;font-variant:normal;font-weight:normal;font-stretch:normal;font-size:3.17499995px;font-family:'Times New Roman';-inkscape-font-specification:'Times New Roman, ';fill:#000000;stroke-width:0.26458332"
           dy="0"
           dx="0">TPR / FPR</tspan></tspan></text>
    <text
       id="text1707"
       y="197.45508"
       x="134.1239"
       style="font-style:normal;font-variant:normal;font-weight:normal;font-stretch:normal;font-size:3.17499995px;line-height:125%;font-family:'Times New Roman';-inkscape-font-specification:'Times New Roman, ';text-align:start;letter-spacing:0px;word-spacing:0px;text-anchor:start;fill:#000000;fill-opacity:1;stroke:none;stroke-width:0.26458332"
       xml:space="preserve"><tspan
         id="tspan1705"
         y="197.45508"
         x="134.1239"
         sodipodi:role="line"
         style="font-style:normal;font-variant:normal;font-weight:normal;font-stretch:normal;font-family:'Times New Roman';-inkscape-font-specification:'Times New Roman, ';stroke-width:0.26458332"><tspan
           id="tspan1703"
           style="font-style:normal;font-variant:normal;font-weight:normal;font-stretch:normal;font-size:3.17499995px;font-family:'Times New Roman';-inkscape-font-specification:'Times New Roman, ';fill:#000000;stroke-width:0.26458332"
           dy="0"
           dx="0">IoU Threshold</tspan></tspan></text>
    <path
       id="path1709"
       d="m 105.69701,164.84977 h 6.77298"
       style="fill:none;stroke:#ed7d31;stroke-width:0.52913922px;stroke-linecap:round;stroke-linejoin:round;stroke-miterlimit:4;stroke-dasharray:none;stroke-opacity:1"
       inkscape:connector-curvature="0" />
    <text
       id="text1715"
       y="165.85289"
       x="113.20645"
       style="font-style:normal;font-variant:normal;font-weight:normal;font-stretch:normal;font-size:3.17499995px;line-height:125%;font-family:'Times New Roman';-inkscape-font-specification:'Times New Roman, ';text-align:start;letter-spacing:0px;word-spacing:0px;text-anchor:start;fill:#000000;fill-opacity:1;stroke:none;stroke-width:0.26458332"
       xml:space="preserve"><tspan
         id="tspan1713"
         y="165.85289"
         x="113.20645"
         sodipodi:role="line"
         style="font-style:normal;font-variant:normal;font-weight:normal;font-stretch:normal;font-family:'Times New Roman';-inkscape-font-specification:'Times New Roman, ';stroke-width:0.26458332"><tspan
           id="tspan1711"
           style="font-style:normal;font-variant:normal;font-weight:normal;font-stretch:normal;font-size:3.17499995px;font-family:'Times New Roman';-inkscape-font-specification:'Times New Roman, ';fill:#000000;stroke-width:0.26458332"
           dy="0"
           dx="0">TPR, MT=0.95</tspan></tspan></text>
    <path
       id="path1717"
       d="m 105.69701,167.98227 h 6.77298"
       style="fill:none;stroke:#c55a11;stroke-width:0.52913922px;stroke-linecap:round;stroke-linejoin:round;stroke-miterlimit:4;stroke-dasharray:none;stroke-opacity:1"
       inkscape:connector-curvature="0" />
    <text
       id="text1723"
       y="168.97701"
       x="113.20645"
       style="font-style:normal;font-variant:normal;font-weight:normal;font-stretch:normal;font-size:3.17499995px;line-height:125%;font-family:'Times New Roman';-inkscape-font-specification:'Times New Roman, ';text-align:start;letter-spacing:0px;word-spacing:0px;text-anchor:start;fill:#000000;fill-opacity:1;stroke:none;stroke-width:0.26458332"
       xml:space="preserve"><tspan
         id="tspan1721"
         y="168.97701"
         x="113.20645"
         sodipodi:role="line"
         style="font-style:normal;font-variant:normal;font-weight:normal;font-stretch:normal;font-family:'Times New Roman';-inkscape-font-specification:'Times New Roman, ';stroke-width:0.26458332"><tspan
           id="tspan1719"
           style="font-style:normal;font-variant:normal;font-weight:normal;font-stretch:normal;font-size:3.17499995px;font-family:'Times New Roman';-inkscape-font-specification:'Times New Roman, ';fill:#000000;stroke-width:0.26458332"
           dy="0"
           dx="0">FPR, MT=0.95</tspan></tspan></text>
    <path
       id="path1725"
       d="m 105.69701,171.07245 h 6.77298"
       style="fill:none;stroke:#70ad47;stroke-width:0.52913922px;stroke-linecap:round;stroke-linejoin:round;stroke-miterlimit:4;stroke-dasharray:none;stroke-opacity:1"
       inkscape:connector-curvature="0" />
    <text
       id="text1731"
       y="172.10112"
       x="113.20645"
       style="font-style:normal;font-variant:normal;font-weight:normal;font-stretch:normal;font-size:3.17499995px;line-height:125%;font-family:'Times New Roman';-inkscape-font-specification:'Times New Roman, ';text-align:start;letter-spacing:0px;word-spacing:0px;text-anchor:start;fill:#000000;fill-opacity:1;stroke:none;stroke-width:0.26458332"
       xml:space="preserve"><tspan
         id="tspan1729"
         y="172.10112"
         x="113.20645"
         sodipodi:role="line"
         style="font-style:normal;font-variant:normal;font-weight:normal;font-stretch:normal;font-family:'Times New Roman';-inkscape-font-specification:'Times New Roman, ';stroke-width:0.26458332"><tspan
           id="tspan1727"
           style="font-style:normal;font-variant:normal;font-weight:normal;font-stretch:normal;font-size:3.17499995px;font-family:'Times New Roman';-inkscape-font-specification:'Times New Roman, ';fill:#000000;stroke-width:0.26458332"
           dy="0"
           dx="0">TPR, MT=0.96</tspan></tspan></text>
    <path
       id="path1733"
       d="m 105.69701,174.20495 h 6.77298"
       style="fill:none;stroke:#548235;stroke-width:0.52913922px;stroke-linecap:round;stroke-linejoin:round;stroke-miterlimit:4;stroke-dasharray:none;stroke-opacity:1"
       inkscape:connector-curvature="0" />
    <text
       id="text1739"
       y="175.22523"
       x="113.20645"
       style="font-style:normal;font-variant:normal;font-weight:normal;font-stretch:normal;font-size:3.17499995px;line-height:125%;font-family:'Times New Roman';-inkscape-font-specification:'Times New Roman, ';text-align:start;letter-spacing:0px;word-spacing:0px;text-anchor:start;fill:#000000;fill-opacity:1;stroke:none;stroke-width:0.26458332"
       xml:space="preserve"><tspan
         id="tspan1737"
         y="175.22523"
         x="113.20645"
         sodipodi:role="line"
         style="font-style:normal;font-variant:normal;font-weight:normal;font-stretch:normal;font-family:'Times New Roman';-inkscape-font-specification:'Times New Roman, ';stroke-width:0.26458332"><tspan
           id="tspan1735"
           style="font-style:normal;font-variant:normal;font-weight:normal;font-stretch:normal;font-size:3.17499995px;font-family:'Times New Roman';-inkscape-font-specification:'Times New Roman, ';fill:#000000;stroke-width:0.26458332"
           dy="0"
           dx="0">FPR, MT=0.96</tspan></tspan></text>
    <path
       id="path1741"
       d="m 105.69701,177.33746 h 6.77298"
       style="fill:none;stroke:#5b9bd5;stroke-width:0.52913922px;stroke-linecap:round;stroke-linejoin:round;stroke-miterlimit:4;stroke-dasharray:none;stroke-opacity:1"
       inkscape:connector-curvature="0" />
    <text
       id="text1747"
       y="178.34935"
       x="113.20645"
       style="font-style:normal;font-variant:normal;font-weight:normal;font-stretch:normal;font-size:3.17499995px;line-height:125%;font-family:'Times New Roman';-inkscape-font-specification:'Times New Roman, ';text-align:start;letter-spacing:0px;word-spacing:0px;text-anchor:start;fill:#000000;fill-opacity:1;stroke:none;stroke-width:0.26458332"
       xml:space="preserve"><tspan
         id="tspan1745"
         y="178.34935"
         x="113.20645"
         sodipodi:role="line"
         style="font-style:normal;font-variant:normal;font-weight:normal;font-stretch:normal;font-family:'Times New Roman';-inkscape-font-specification:'Times New Roman, ';stroke-width:0.26458332"><tspan
           id="tspan1743"
           style="font-style:normal;font-variant:normal;font-weight:normal;font-stretch:normal;font-size:3.17499995px;font-family:'Times New Roman';-inkscape-font-specification:'Times New Roman, ';fill:#000000;stroke-width:0.26458332"
           dy="0"
           dx="0">TPR, MT=0.97</tspan></tspan></text>
    <path
       id="path1749"
       d="m 105.69701,180.46996 h 6.77298"
       style="fill:none;stroke:#4472c4;stroke-width:0.52913922px;stroke-linecap:round;stroke-linejoin:round;stroke-miterlimit:4;stroke-dasharray:none;stroke-opacity:1"
       inkscape:connector-curvature="0" />
    <text
       id="text1755"
       y="181.47346"
       x="113.20645"
       style="font-style:normal;font-variant:normal;font-weight:normal;font-stretch:normal;font-size:3.17499995px;line-height:125%;font-family:'Times New Roman';-inkscape-font-specification:'Times New Roman, ';text-align:start;letter-spacing:0px;word-spacing:0px;text-anchor:start;fill:#000000;fill-opacity:1;stroke:none;stroke-width:0.26458332"
       xml:space="preserve"><tspan
         id="tspan1753"
         y="181.47346"
         x="113.20645"
         sodipodi:role="line"
         style="font-style:normal;font-variant:normal;font-weight:normal;font-stretch:normal;font-family:'Times New Roman';-inkscape-font-specification:'Times New Roman, ';stroke-width:0.26458332"><tspan
           id="tspan1751"
           style="font-style:normal;font-variant:normal;font-weight:normal;font-stretch:normal;font-size:3.17499995px;font-family:'Times New Roman';-inkscape-font-specification:'Times New Roman, ';fill:#000000;stroke-width:0.26458332"
           dy="0"
           dx="0">FPR, MT=0.97</tspan></tspan></text>
  </g>
</svg>
